<svg width="15" height="15" viewBox="0 0 15 15" fill="none" xmlns="http://www.w3.org/2000/svg">
<path fill-rule="evenodd" clip-rule="evenodd" d="M0.3894 4.36706C4.47035e-08 5.07846 0 5.93662 0 7.65293V8.79375C0 11.7194 8.9407e-08 13.1822 0.878678 14.0911C1.75736 15 3.17157 15 6 15H9C11.8284 15 13.2427 15 14.1213 14.0911C15 13.1822 15 11.7194 15 8.79375V7.65293C15 5.93662 15 5.07846 14.6106 4.36706C14.2212 3.65566 13.5098 3.21413 12.087 2.33109L10.587 1.40015C9.08295 0.466717 8.33093 0 7.5 0C6.66908 0 5.91704 0.466717 4.41302 1.40015L2.91302 2.3311C1.49021 3.21413 0.7788 3.65566 0.3894 4.36706ZM5.58496 10.0481C5.33539 9.8631 4.9831 9.91545 4.7981 10.1651C4.61312 10.4147 4.66546 10.7669 4.91504 10.9519C5.64435 11.4925 6.53625 11.8125 7.5 11.8125C8.46375 11.8125 9.35565 11.4925 10.085 10.9519C10.3346 10.7669 10.3869 10.4147 10.2019 10.1651C10.0169 9.91545 9.66465 9.8631 9.41505 10.0481C8.86875 10.453 8.20943 10.6875 7.5 10.6875C6.79058 10.6875 6.13125 10.453 5.58496 10.0481Z" fill="#424242"/>
<path fill-rule="evenodd" clip-rule="evenodd" d="M0.3894 4.36706C4.47035e-08 5.07846 0 5.93662 0 7.65293V8.79375C0 11.7194 8.9407e-08 13.1822 0.878678 14.0911C1.75736 15 3.17157 15 6 15H9C11.8284 15 13.2427 15 14.1213 14.0911C15 13.1822 15 11.7194 15 8.79375V7.65293C15 5.93662 15 5.07846 14.6106 4.36706C14.2212 3.65566 13.5098 3.21413 12.087 2.33109L10.587 1.40015C9.08295 0.466717 8.33093 0 7.5 0C6.66908 0 5.91704 0.466717 4.41302 1.40015L2.91302 2.3311C1.49021 3.21413 0.7788 3.65566 0.3894 4.36706ZM5.58496 10.0481C5.33539 9.8631 4.9831 9.91545 4.7981 10.1651C4.61312 10.4147 4.66546 10.7669 4.91504 10.9519C5.64435 11.4925 6.53625 11.8125 7.5 11.8125C8.46375 11.8125 9.35565 11.4925 10.085 10.9519C10.3346 10.7669 10.3869 10.4147 10.2019 10.1651C10.0169 9.91545 9.66465 9.8631 9.41505 10.0481C8.86875 10.453 8.20943 10.6875 7.5 10.6875C6.79058 10.6875 6.13125 10.453 5.58496 10.0481Z" fill="black" fill-opacity="0.2"/>
</svg>
