<svg width="15" height="15" viewBox="0 0 15 15" fill="none" xmlns="http://www.w3.org/2000/svg">
<path d="M0.1875 7.6875C0.1875 7.37685 0.439342 7.125 0.75 7.125C4.78858 7.125 8.0625 10.3989 8.0625 14.4375C8.0625 14.7481 7.81065 15 7.5 15C7.18935 15 6.9375 14.7481 6.9375 14.4375C6.9375 11.0203 4.16726 8.25 0.75 8.25C0.439342 8.25 0.1875 7.99815 0.1875 7.6875Z" fill="#424242"/>
<path d="M0.1875 7.6875C0.1875 7.37685 0.439342 7.125 0.75 7.125C4.78858 7.125 8.0625 10.3989 8.0625 14.4375C8.0625 14.7481 7.81065 15 7.5 15C7.18935 15 6.9375 14.7481 6.9375 14.4375C6.9375 11.0203 4.16726 8.25 0.75 8.25C0.439342 8.25 0.1875 7.99815 0.1875 7.6875Z" fill="black" fill-opacity="0.2"/>
<path d="M0.1875 9.9375C0.1875 9.62685 0.439342 9.375 0.75 9.375C3.54594 9.375 5.8125 11.6416 5.8125 14.4375C5.8125 14.7481 5.56066 15 5.25 15C4.93934 15 4.6875 14.7481 4.6875 14.4375C4.6875 12.2629 2.92462 10.5 0.75 10.5C0.439342 10.5 0.1875 10.2481 0.1875 9.9375Z" fill="#424242"/>
<path d="M0.1875 9.9375C0.1875 9.62685 0.439342 9.375 0.75 9.375C3.54594 9.375 5.8125 11.6416 5.8125 14.4375C5.8125 14.7481 5.56066 15 5.25 15C4.93934 15 4.6875 14.7481 4.6875 14.4375C4.6875 12.2629 2.92462 10.5 0.75 10.5C0.439342 10.5 0.1875 10.2481 0.1875 9.9375Z" fill="black" fill-opacity="0.2"/>
<path d="M0.75 11.625C0.439342 11.625 0.1875 11.8769 0.1875 12.1875C0.1875 12.4981 0.439342 12.75 0.75 12.75C1.68198 12.75 2.4375 13.5056 2.4375 14.4375C2.4375 14.7482 2.68934 15 3 15C3.31066 15 3.5625 14.7482 3.5625 14.4375C3.5625 12.8842 2.3033 11.625 0.75 11.625Z" fill="#424242"/>
<path d="M0.75 11.625C0.439342 11.625 0.1875 11.8769 0.1875 12.1875C0.1875 12.4981 0.439342 12.75 0.75 12.75C1.68198 12.75 2.4375 13.5056 2.4375 14.4375C2.4375 14.7482 2.68934 15 3 15C3.31066 15 3.5625 14.7482 3.5625 14.4375C3.5625 12.8842 2.3033 11.625 0.75 11.625Z" fill="black" fill-opacity="0.2"/>
<path d="M0.0183453 6.16642C0.239678 6.05977 0.48786 6 0.75 6C5.4099 6 9.1875 9.7776 9.1875 14.4375C9.1875 14.6344 9.15375 14.8234 9.0918 14.9992C11.1777 14.9919 12.2982 14.9215 13.0883 14.2411C13.9695 13.4823 14.1523 12.212 14.5179 9.6714L14.7269 8.21842C15.0115 6.2406 15.1538 5.25172 14.7485 4.40621C14.3432 3.5607 13.4803 3.04676 11.7548 2.01887L10.7162 1.40015C9.14925 0.466717 8.36572 0 7.5 0C6.63427 0 5.85078 0.466717 4.28381 1.40015L3.24518 2.01886C1.51964 3.04676 0.656873 3.5607 0.251528 4.40621C0.0185778 4.89211 -0.0335022 5.42536 0.0183453 6.16642Z" fill="#424242"/>
<path d="M0.0183453 6.16642C0.239678 6.05977 0.48786 6 0.75 6C5.4099 6 9.1875 9.7776 9.1875 14.4375C9.1875 14.6344 9.15375 14.8234 9.0918 14.9992C11.1777 14.9919 12.2982 14.9215 13.0883 14.2411C13.9695 13.4823 14.1523 12.212 14.5179 9.6714L14.7269 8.21842C15.0115 6.2406 15.1538 5.25172 14.7485 4.40621C14.3432 3.5607 13.4803 3.04676 11.7548 2.01887L10.7162 1.40015C9.14925 0.466717 8.36572 0 7.5 0C6.63427 0 5.85078 0.466717 4.28381 1.40015L3.24518 2.01886C1.51964 3.04676 0.656873 3.5607 0.251528 4.40621C0.0185778 4.89211 -0.0335022 5.42536 0.0183453 6.16642Z" fill="black" fill-opacity="0.2"/>
</svg>
