<svg width="15" height="15" viewBox="0 0 15 15" fill="none" xmlns="http://www.w3.org/2000/svg">
<path fill-rule="evenodd" clip-rule="evenodd" d="M0.251525 4.40621C-0.15382 5.25172 -0.0115298 6.2406 0.27305 8.21843L0.482128 9.6714C0.847685 12.212 1.03047 13.4823 1.91177 14.2412C2.79307 15 4.08553 15 6.67042 15H8.32957C10.9144 15 12.2069 15 13.0882 14.2412C13.9695 13.4823 14.1523 12.212 14.5179 9.6714L14.7269 8.21843C15.0115 6.2406 15.1538 5.25172 14.7484 4.40621C14.3431 3.5607 13.4803 3.04676 11.7548 2.01886L10.7161 1.40015C9.14925 0.466717 8.36572 0 7.5 0C6.63427 0 5.85078 0.466717 4.28381 1.40015L3.24518 2.01886C1.51964 3.04676 0.65687 3.5607 0.251525 4.40621ZM4.68757 11.9999C4.68757 11.6892 4.93942 11.4374 5.25007 11.4374H9.75007C10.0607 11.4374 10.3126 11.6892 10.3126 11.9999C10.3126 12.3105 10.0607 12.5624 9.75007 12.5624H5.25007C4.93942 12.5624 4.68757 12.3105 4.68757 11.9999Z" fill="#424242"/>
<path fill-rule="evenodd" clip-rule="evenodd" d="M0.251525 4.40621C-0.15382 5.25172 -0.0115298 6.2406 0.27305 8.21843L0.482128 9.6714C0.847685 12.212 1.03047 13.4823 1.91177 14.2412C2.79307 15 4.08553 15 6.67042 15H8.32957C10.9144 15 12.2069 15 13.0882 14.2412C13.9695 13.4823 14.1523 12.212 14.5179 9.6714L14.7269 8.21843C15.0115 6.2406 15.1538 5.25172 14.7484 4.40621C14.3431 3.5607 13.4803 3.04676 11.7548 2.01886L10.7161 1.40015C9.14925 0.466717 8.36572 0 7.5 0C6.63427 0 5.85078 0.466717 4.28381 1.40015L3.24518 2.01886C1.51964 3.04676 0.65687 3.5607 0.251525 4.40621ZM4.68757 11.9999C4.68757 11.6892 4.93942 11.4374 5.25007 11.4374H9.75007C10.0607 11.4374 10.3126 11.6892 10.3126 11.9999C10.3126 12.3105 10.0607 12.5624 9.75007 12.5624H5.25007C4.93942 12.5624 4.68757 12.3105 4.68757 11.9999Z" fill="black" fill-opacity="0.2"/>
</svg>
