<svg width="17" height="17" viewBox="0 0 17 17" fill="none" xmlns="http://www.w3.org/2000/svg">
<path d="M6.375 9.56219C6.375 10.2897 6.9375 10.8747 7.6275 10.8747H9.0375C9.6375 10.8747 10.125 10.3647 10.125 9.7272C10.125 9.0447 9.825 8.7972 9.3825 8.6397L7.125 7.8522C6.6825 7.6947 6.38251 7.4547 6.38251 6.7647C6.38251 6.13469 6.87 5.61719 7.47 5.61719H8.88C9.57 5.61719 10.1325 6.20219 10.1325 6.92969" stroke="#4A4A4A" stroke-width="1.5" stroke-linecap="round" stroke-linejoin="round"/>
<path d="M8.25 4.875V11.625" stroke="#4A4A4A" stroke-width="1.5" stroke-linecap="round" stroke-linejoin="round"/>
<path d="M15.75 8.25C15.75 12.39 12.39 15.75 8.25 15.75C4.11 15.75 0.75 12.39 0.75 8.25C0.75 4.11 4.11 0.75 8.25 0.75" stroke="#4A4A4A" stroke-width="1.5" stroke-linecap="round" stroke-linejoin="round"/>
<path d="M15.75 3.75V0.75H12.75" stroke="#4A4A4A" stroke-width="1.5" stroke-linecap="round" stroke-linejoin="round"/>
<path d="M12 4.5L15.75 0.75" stroke="#4A4A4A" stroke-width="1.5" stroke-linecap="round" stroke-linejoin="round"/>
</svg>
