<svg width="15" height="12" viewBox="0 0 15 12" fill="none" xmlns="http://www.w3.org/2000/svg">
<path d="M10.125 2.625C10.125 4.07475 8.94975 5.25 7.5 5.25C6.05025 5.25 4.875 4.07475 4.875 2.625C4.875 1.17525 6.05025 0 7.5 0C8.94975 0 10.125 1.17525 10.125 2.625Z" fill="#424242"/>
<path d="M10.125 2.625C10.125 4.07475 8.94975 5.25 7.5 5.25C6.05025 5.25 4.875 4.07475 4.875 2.625C4.875 1.17525 6.05025 0 7.5 0C8.94975 0 10.125 1.17525 10.125 2.625Z" fill="black" fill-opacity="0.2"/>
<path d="M12 9.375C12 10.8248 9.98527 12 7.5 12C5.01472 12 3 10.8248 3 9.375C3 7.92525 5.01472 6.75 7.5 6.75C9.98527 6.75 12 7.92525 12 9.375Z" fill="#424242"/>
<path d="M12 9.375C12 10.8248 9.98527 12 7.5 12C5.01472 12 3 10.8248 3 9.375C3 7.92525 5.01472 6.75 7.5 6.75C9.98527 6.75 12 7.92525 12 9.375Z" fill="black" fill-opacity="0.2"/>
<path d="M3.84265 0.75C3.97574 0.75 4.10568 0.763058 4.23115 0.78792C3.92548 1.33085 3.75111 1.95756 3.75111 2.625C3.75111 3.27619 3.91709 3.88862 4.20905 4.42227C4.09045 4.44437 3.96795 4.45595 3.84265 4.45595C2.78183 4.45595 1.92188 3.62634 1.92188 2.60297C1.92188 1.57961 2.78183 0.75 3.84265 0.75Z" fill="#424242"/>
<path d="M3.84265 0.75C3.97574 0.75 4.10568 0.763058 4.23115 0.78792C3.92548 1.33085 3.75111 1.95756 3.75111 2.625C3.75111 3.27619 3.91709 3.88862 4.20905 4.42227C4.09045 4.44437 3.96795 4.45595 3.84265 4.45595C2.78183 4.45595 1.92188 3.62634 1.92188 2.60297C1.92188 1.57961 2.78183 0.75 3.84265 0.75Z" fill="black" fill-opacity="0.2"/>
<path d="M2.58551 11.2386C2.15957 10.7294 1.875 10.1046 1.875 9.37412C1.875 8.66597 2.14243 8.05712 2.54684 7.55664C1.11833 7.66749 0 8.44877 0 9.39617C0 10.3524 1.13798 11.1395 2.58551 11.2386Z" fill="#424242"/>
<path d="M2.58551 11.2386C2.15957 10.7294 1.875 10.1046 1.875 9.37412C1.875 8.66597 2.14243 8.05712 2.54684 7.55664C1.11833 7.66749 0 8.44877 0 9.39617C0 10.3524 1.13798 11.1395 2.58551 11.2386Z" fill="black" fill-opacity="0.2"/>
<path d="M11.2495 2.625C11.2495 3.27619 11.0836 3.88862 10.7916 4.42227C10.9102 4.44437 11.0327 4.45595 11.158 4.45595C12.2188 4.45595 13.0788 3.62634 13.0788 2.60297C13.0788 1.57961 12.2188 0.75 11.158 0.75C11.0249 0.75 10.895 0.763058 10.7695 0.78792C11.0752 1.33085 11.2495 1.95756 11.2495 2.625Z" fill="#424242"/>
<path d="M11.2495 2.625C11.2495 3.27619 11.0836 3.88862 10.7916 4.42227C10.9102 4.44437 11.0327 4.45595 11.158 4.45595C12.2188 4.45595 13.0788 3.62634 13.0788 2.60297C13.0788 1.57961 12.2188 0.75 11.158 0.75C11.0249 0.75 10.895 0.763058 10.7695 0.78792C11.0752 1.33085 11.2495 1.95756 11.2495 2.625Z" fill="black" fill-opacity="0.2"/>
<path d="M12.4141 11.2386C13.8616 11.1395 14.9995 10.3524 14.9995 9.39617C14.9995 8.44877 13.8812 7.66749 12.4527 7.55664C12.8571 8.05712 13.1245 8.66597 13.1245 9.37412C13.1245 10.1046 12.84 10.7294 12.4141 11.2386Z" fill="#424242"/>
<path d="M12.4141 11.2386C13.8616 11.1395 14.9995 10.3524 14.9995 9.39617C14.9995 8.44877 13.8812 7.66749 12.4527 7.55664C12.8571 8.05712 13.1245 8.66597 13.1245 9.37412C13.1245 10.1046 12.84 10.7294 12.4141 11.2386Z" fill="black" fill-opacity="0.2"/>
</svg>
