<svg width="15" height="15" viewBox="0 0 15 15" fill="none" xmlns="http://www.w3.org/2000/svg">
<path fill-rule="evenodd" clip-rule="evenodd" d="M0.0520125 2.44379C5.58794e-09 2.71946 0 3.05042 0 3.71231V9C0 11.8284 8.9407e-08 13.2427 0.878678 14.1213C1.75736 15 3.17157 15 6 15H9C11.8284 15 13.2427 15 14.1213 14.1213C15 13.2427 15 11.8284 15 9V7.34843C15 5.37416 15 4.38701 14.4229 3.74537C14.3699 3.68636 14.3137 3.63018 14.2547 3.5771C13.613 3 12.6259 3 10.6516 3H10.3713C9.50603 3 9.07343 3 8.6703 2.88509C8.44883 2.82195 8.2353 2.73353 8.03408 2.62157C7.66778 2.41775 7.36185 2.11184 6.75 1.5L6.33728 1.08731C6.13223 0.882248 6.0297 0.779708 5.92196 0.690383C5.45739 0.30528 4.88749 0.0692175 4.28668 0.013035C4.14732 0 4.00232 0 3.71231 0C3.05042 0 2.71946 5.58794e-09 2.44379 0.0520125C1.23023 0.28098 0.28098 1.23023 0.0520125 2.44379ZM5.97725 7.10228C6.19695 6.8826 6.55305 6.8826 6.77273 7.10228L7.5 7.82948L8.22728 7.10228C8.44695 6.8826 8.80305 6.8826 9.02273 7.10228C9.2424 7.32195 9.2424 7.67805 9.02273 7.89773L8.29553 8.625L9.02273 9.35228C9.2424 9.57195 9.2424 9.92805 9.02273 10.1477C8.80305 10.3674 8.44695 10.3674 8.22728 10.1477L7.5 9.42053L6.77273 10.1477C6.55305 10.3674 6.19695 10.3674 5.97725 10.1477C5.75759 9.92805 5.75759 9.57195 5.97725 9.35228L6.70448 8.625L5.97725 7.89773C5.75759 7.67805 5.75759 7.32195 5.97725 7.10228Z" fill="#424242"/>
<path fill-rule="evenodd" clip-rule="evenodd" d="M0.0520125 2.44379C5.58794e-09 2.71946 0 3.05042 0 3.71231V9C0 11.8284 8.9407e-08 13.2427 0.878678 14.1213C1.75736 15 3.17157 15 6 15H9C11.8284 15 13.2427 15 14.1213 14.1213C15 13.2427 15 11.8284 15 9V7.34843C15 5.37416 15 4.38701 14.4229 3.74537C14.3699 3.68636 14.3137 3.63018 14.2547 3.5771C13.613 3 12.6259 3 10.6516 3H10.3713C9.50603 3 9.07343 3 8.6703 2.88509C8.44883 2.82195 8.2353 2.73353 8.03408 2.62157C7.66778 2.41775 7.36185 2.11184 6.75 1.5L6.33728 1.08731C6.13223 0.882248 6.0297 0.779708 5.92196 0.690383C5.45739 0.30528 4.88749 0.0692175 4.28668 0.013035C4.14732 0 4.00232 0 3.71231 0C3.05042 0 2.71946 5.58794e-09 2.44379 0.0520125C1.23023 0.28098 0.28098 1.23023 0.0520125 2.44379ZM5.97725 7.10228C6.19695 6.8826 6.55305 6.8826 6.77273 7.10228L7.5 7.82948L8.22728 7.10228C8.44695 6.8826 8.80305 6.8826 9.02273 7.10228C9.2424 7.32195 9.2424 7.67805 9.02273 7.89773L8.29553 8.625L9.02273 9.35228C9.2424 9.57195 9.2424 9.92805 9.02273 10.1477C8.80305 10.3674 8.44695 10.3674 8.22728 10.1477L7.5 9.42053L6.77273 10.1477C6.55305 10.3674 6.19695 10.3674 5.97725 10.1477C5.75759 9.92805 5.75759 9.57195 5.97725 9.35228L6.70448 8.625L5.97725 7.89773C5.75759 7.67805 5.75759 7.32195 5.97725 7.10228Z" fill="black" fill-opacity="0.2"/>
</svg>
