<svg width="20" height="20" viewBox="0 0 20 20" fill="none" xmlns="http://www.w3.org/2000/svg">
<g clip-path="url(#clip0_352_914)">
<path fill-rule="evenodd" clip-rule="evenodd" d="M9 4.0625C5.16853 4.0625 2.0625 7.16853 2.0625 11C2.0625 12.1108 2.32315 13.1591 2.7861 14.0886C2.9719 14.4616 3.04345 14.9077 2.92622 15.3459L2.47952 17.0154C2.39747 17.322 2.678 17.6026 2.98462 17.5205L4.65415 17.0738C5.0923 16.9566 5.53838 17.0281 5.91143 17.2139C6.84091 17.6769 7.88917 17.9375 9 17.9375C12.8315 17.9375 15.9375 14.8315 15.9375 11C15.9375 7.16853 12.8315 4.0625 9 4.0625ZM0.9375 11C0.9375 6.5472 4.5472 2.9375 9 2.9375C13.4528 2.9375 17.0625 6.5472 17.0625 11C17.0625 15.4528 13.4528 19.0625 9 19.0625C7.71128 19.0625 6.49164 18.7597 5.40986 18.2209C5.24843 18.1405 5.0836 18.1234 4.94493 18.1605L3.2754 18.6073C2.13253 18.913 1.08695 17.8674 1.39275 16.7246L1.83945 15.0551C1.87656 14.9164 1.8595 14.7516 1.7791 14.5902C1.24028 13.5084 0.9375 12.2887 0.9375 11ZM5.4375 9.875C5.4375 9.56435 5.68934 9.3125 6 9.3125H12C12.3106 9.3125 12.5625 9.56435 12.5625 9.875C12.5625 10.1856 12.3106 10.4375 12 10.4375H6C5.68934 10.4375 5.4375 10.1856 5.4375 9.875ZM5.4375 12.5C5.4375 12.1894 5.68934 11.9375 6 11.9375H10.125C10.4356 11.9375 10.6875 12.1894 10.6875 12.5C10.6875 12.8106 10.4356 13.0625 10.125 13.0625H6C5.68934 13.0625 5.4375 12.8106 5.4375 12.5Z" fill="black"/>
</g>
<circle cx="18" cy="2" r="2" fill="#FF3C3F"/>
<defs>
<clipPath id="clip0_352_914">
<rect width="18" height="18" fill="white" transform="translate(0 2)"/>
</clipPath>
</defs>
</svg>
