<svg width="20" height="20" viewBox="0 0 20 20" fill="none" xmlns="http://www.w3.org/2000/svg">
<path d="M9 6.83008V9.32758" stroke="black" stroke-width="1.5" stroke-miterlimit="10" stroke-linecap="round"/>
<path d="M9.01613 3.5C6.25614 3.5 4.02114 5.735 4.02114 8.495V10.07C4.02114 10.58 3.81114 11.345 3.54864 11.78L2.59614 13.37C2.01114 14.3525 2.41614 15.4475 3.49614 15.8075C7.08114 17 10.9586 17 14.5436 15.8075C15.5561 15.47 15.9911 14.285 15.4436 13.37L14.4911 11.78C14.2286 11.345 14.0186 10.5725 14.0186 10.07V8.495C14.0111 5.75 11.7611 3.5 9.01613 3.5Z" stroke="black" stroke-width="1.5" stroke-miterlimit="10" stroke-linecap="round"/>
<path d="M11.4989 16.1152C11.4989 17.4877 10.3739 18.6127 9.00138 18.6127C8.31888 18.6127 7.68888 18.3277 7.23891 17.8777C6.78891 17.4277 6.50391 16.7977 6.50391 16.1152" stroke="black" stroke-width="1.5" stroke-miterlimit="10"/>
<circle cx="18" cy="2" r="2" fill="#FF3C3F"/>
</svg>
