<svg width="15" height="15" viewBox="0 0 15 15" fill="none" xmlns="http://www.w3.org/2000/svg">
<path d="M13.4824 4.36312L7.7074 7.70812C7.4749 7.84312 7.1824 7.84312 6.9424 7.70812L1.16737 4.36312C0.754868 4.12313 0.649868 3.56063 0.964868 3.20813C1.18237 2.96063 1.42987 2.75812 1.69237 2.61562L5.75737 0.365625C6.6274 -0.121875 8.0374 -0.121875 8.9074 0.365625L12.9724 2.61562C13.2349 2.75812 13.4824 2.96813 13.6999 3.20813C13.9999 3.56063 13.8949 4.12313 13.4824 4.36312Z" fill="#292D32"/>
<path d="M6.90002 9.10125V14.2162C6.90002 14.7862 6.32252 15.1612 5.8125 14.9137C4.2675 14.1562 1.665 12.7387 1.665 12.7387C0.75 12.2212 0 10.9162 0 9.84375V5.97375C0 5.38125 0.6225 5.00625 1.1325 5.29875L6.52502 8.42625C6.75002 8.56875 6.90002 8.82375 6.90002 9.10125Z" fill="#292D32"/>
<path d="M7.75391 9.10125V14.2162C7.75391 14.7862 8.33141 15.1612 8.84141 14.9137C10.3864 14.1562 12.9889 12.7387 12.9889 12.7387C13.9039 12.2212 14.6539 10.9162 14.6539 9.84375V5.97375C14.6539 5.38125 14.0314 5.00625 13.5214 5.29875L8.12891 8.42625C7.90391 8.56875 7.75391 8.82375 7.75391 9.10125Z" fill="#292D32"/>
</svg>
