<svg width="15" height="14" viewBox="0 0 15 14" fill="none" xmlns="http://www.w3.org/2000/svg">
<path fill-rule="evenodd" clip-rule="evenodd" d="M5.03698 0.152077C5.24132 -0.0506925 5.57263 -0.0506925 5.77697 0.152077L7.17233 1.5367C7.32195 1.68519 7.36672 1.90852 7.28573 2.10255C7.20473 2.29657 7.014 2.42308 6.80235 2.42308H5.40697C2.99875 2.42308 1.04651 4.3603 1.04651 6.75C1.04651 9.13965 2.99893 11.0769 5.40717 11.0769H5.75582C6.04478 11.0769 6.27907 11.3094 6.27907 11.5961C6.27907 11.8829 6.04478 12.1153 5.75582 12.1153H5.40717C2.42101 12.1153 0 9.71325 0 6.75C0 3.78678 2.42078 1.38461 5.40697 1.38461H5.53907L5.03698 0.88638C4.83263 0.68361 4.83263 0.354855 5.03698 0.152077Z" fill="#424242"/>
<path fill-rule="evenodd" clip-rule="evenodd" d="M5.03698 0.152077C5.24132 -0.0506925 5.57263 -0.0506925 5.77697 0.152077L7.17233 1.5367C7.32195 1.68519 7.36672 1.90852 7.28573 2.10255C7.20473 2.29657 7.014 2.42308 6.80235 2.42308H5.40697C2.99875 2.42308 1.04651 4.3603 1.04651 6.75C1.04651 9.13965 2.99893 11.0769 5.40717 11.0769H5.75582C6.04478 11.0769 6.27907 11.3094 6.27907 11.5961C6.27907 11.8829 6.04478 12.1153 5.75582 12.1153H5.40717C2.42101 12.1153 0 9.71325 0 6.75C0 3.78678 2.42078 1.38461 5.40697 1.38461H5.53907L5.03698 0.88638C4.83263 0.68361 4.83263 0.354855 5.03698 0.152077Z" fill="black" fill-opacity="0.2"/>
<path fill-rule="evenodd" clip-rule="evenodd" d="M8.72228 1.904C8.72228 1.61724 8.95658 1.38477 9.24556 1.38477H9.59438C12.5806 1.38477 15.0014 3.78693 15.0014 6.75015C15.0014 9.7134 12.5806 12.1155 9.59438 12.1155H9.46231L9.96436 12.6138C10.1687 12.8165 10.1687 13.1453 9.96436 13.3481C9.76006 13.5509 9.42871 13.5509 9.22441 13.3481L7.82903 11.9635C7.67941 11.815 7.63463 11.5916 7.71563 11.3976C7.79663 11.2036 7.98736 11.0771 8.19901 11.0771H9.59438C12.0026 11.0771 13.9549 9.13988 13.9549 6.75015C13.9549 4.36046 12.0026 2.42323 9.59438 2.42323H9.24556C8.95658 2.42323 8.72228 2.19076 8.72228 1.904Z" fill="#424242"/>
<path fill-rule="evenodd" clip-rule="evenodd" d="M8.72228 1.904C8.72228 1.61724 8.95658 1.38477 9.24556 1.38477H9.59438C12.5806 1.38477 15.0014 3.78693 15.0014 6.75015C15.0014 9.7134 12.5806 12.1155 9.59438 12.1155H9.46231L9.96436 12.6138C10.1687 12.8165 10.1687 13.1453 9.96436 13.3481C9.76006 13.5509 9.42871 13.5509 9.22441 13.3481L7.82903 11.9635C7.67941 11.815 7.63463 11.5916 7.71563 11.3976C7.79663 11.2036 7.98736 11.0771 8.19901 11.0771H9.59438C12.0026 11.0771 13.9549 9.13988 13.9549 6.75015C13.9549 4.36046 12.0026 2.42323 9.59438 2.42323H9.24556C8.95658 2.42323 8.72228 2.19076 8.72228 1.904Z" fill="black" fill-opacity="0.2"/>
<path d="M2.61719 6.7497C2.61719 5.22029 3.86663 3.98047 5.40789 3.98047H9.59394C11.1352 3.98047 12.3846 5.22029 12.3846 6.7497C12.3846 8.2791 11.1352 9.51893 9.59394 9.51893H5.40789C3.86663 9.51893 2.61719 8.2791 2.61719 6.7497Z" fill="#424242"/>
<path d="M2.61719 6.7497C2.61719 5.22029 3.86663 3.98047 5.40789 3.98047H9.59394C11.1352 3.98047 12.3846 5.22029 12.3846 6.7497C12.3846 8.2791 11.1352 9.51893 9.59394 9.51893H5.40789C3.86663 9.51893 2.61719 8.2791 2.61719 6.7497Z" fill="black" fill-opacity="0.2"/>
</svg>
