<svg width="15" height="18" viewBox="0 0 15 18" fill="none" xmlns="http://www.w3.org/2000/svg">
<g clip-path="url(#clip0_352_1600)">
<path d="M9.33661 15.9452C9.06894 16.5824 8.892 17.274 8.82422 17.9992L14.4887 16.7064C14.7564 16.0693 14.9332 15.3776 15.0011 14.6523L9.33661 15.9452Z" fill="#231F20"/>
<path d="M14.4876 12.8339C14.7553 12.1968 14.9322 11.5051 15 10.7799L10.5876 11.7875V9.85051L14.4875 8.96067C14.7551 8.32356 14.9321 7.63187 14.9999 6.90664L10.5874 7.91339V0.947429C9.91131 1.35503 9.31085 1.89758 8.82274 2.53756V8.31625L7.05806 8.71898V0C6.38195 0.407453 5.78149 0.950151 5.29338 1.59013V9.12156L1.34489 10.0224C1.07722 10.6595 0.900155 11.3512 0.832236 12.0765L5.29338 11.0585V13.4978L0.512392 14.5887C0.24472 15.2258 0.0677852 15.9175 0 16.6427L5.00436 15.5008C5.41174 15.4099 5.76187 15.1513 5.98951 14.7954L6.90728 13.3345V13.3342C7.00255 13.1831 7.05806 13.0008 7.05806 12.8045V10.6558L8.82274 10.2531V14.127L14.4875 12.8336L14.4876 12.8339Z" fill="#231F20"/>
</g>
<defs>
<clipPath id="clip0_352_1600">
<rect width="15" height="18" fill="white"/>
</clipPath>
</defs>
</svg>
