<svg width="14" height="15" viewBox="0 0 14 15" fill="none" xmlns="http://www.w3.org/2000/svg">
<path d="M4.875 0C4.25368 0 3.75 0.503677 3.75 1.125V1.875C3.75 2.49632 4.25368 3 4.875 3H8.625C9.2463 3 9.75 2.49632 9.75 1.875V1.125C9.75 0.503677 9.2463 0 8.625 0H4.875Z" fill="#424242"/>
<path d="M4.875 0C4.25368 0 3.75 0.503677 3.75 1.125V1.875C3.75 2.49632 4.25368 3 4.875 3H8.625C9.2463 3 9.75 2.49632 9.75 1.875V1.125C9.75 0.503677 9.2463 0 8.625 0H4.875Z" fill="black" fill-opacity="0.2"/>
<path fill-rule="evenodd" clip-rule="evenodd" d="M2.625 1.52734C1.68157 1.58027 1.08598 1.73061 0.65901 2.15758C0 2.81659 0 3.87725 0 5.99857V10.4986C0 12.6199 0 13.6806 0.65901 14.3396C1.31802 14.9986 2.37868 14.9986 4.5 14.9986H9C11.1213 14.9986 12.1819 14.9986 12.841 14.3396C13.5 13.6806 13.5 12.6199 13.5 10.4986V5.99857C13.5 3.87725 13.5 2.81659 12.841 2.15758C12.414 1.73061 11.8184 1.58027 10.875 1.52734V1.87488C10.875 3.11752 9.86767 4.12488 8.625 4.12488H4.875C3.63236 4.12488 2.625 3.11752 2.625 1.87488V1.52734ZM3 5.81238C2.68934 5.81238 2.4375 6.06423 2.4375 6.37488C2.4375 6.68553 2.68934 6.93738 3 6.93738H3.375C3.68566 6.93738 3.9375 6.68553 3.9375 6.37488C3.9375 6.06423 3.68566 5.81238 3.375 5.81238H3ZM5.625 5.81238C5.31435 5.81238 5.0625 6.06423 5.0625 6.37488C5.0625 6.68553 5.31435 6.93738 5.625 6.93738H10.5C10.8106 6.93738 11.0625 6.68553 11.0625 6.37488C11.0625 6.06423 10.8106 5.81238 10.5 5.81238H5.625ZM3 8.43738C2.68934 8.43738 2.4375 8.68923 2.4375 8.99988C2.4375 9.31053 2.68934 9.56238 3 9.56238H3.375C3.68566 9.56238 3.9375 9.31053 3.9375 8.99988C3.9375 8.68923 3.68566 8.43738 3.375 8.43738H3ZM5.625 8.43738C5.31435 8.43738 5.0625 8.68923 5.0625 8.99988C5.0625 9.31053 5.31435 9.56238 5.625 9.56238H10.5C10.8106 9.56238 11.0625 9.31053 11.0625 8.99988C11.0625 8.68923 10.8106 8.43738 10.5 8.43738H5.625ZM3 11.0624C2.68934 11.0624 2.4375 11.3142 2.4375 11.6249C2.4375 11.9355 2.68934 12.1874 3 12.1874H3.375C3.68566 12.1874 3.9375 11.9355 3.9375 11.6249C3.9375 11.3142 3.68566 11.0624 3.375 11.0624H3ZM5.625 11.0624C5.31435 11.0624 5.0625 11.3142 5.0625 11.6249C5.0625 11.9355 5.31435 12.1874 5.625 12.1874H10.5C10.8106 12.1874 11.0625 11.9355 11.0625 11.6249C11.0625 11.3142 10.8106 11.0624 10.5 11.0624H5.625Z" fill="#424242"/>
<path fill-rule="evenodd" clip-rule="evenodd" d="M2.625 1.52734C1.68157 1.58027 1.08598 1.73061 0.65901 2.15758C0 2.81659 0 3.87725 0 5.99857V10.4986C0 12.6199 0 13.6806 0.65901 14.3396C1.31802 14.9986 2.37868 14.9986 4.5 14.9986H9C11.1213 14.9986 12.1819 14.9986 12.841 14.3396C13.5 13.6806 13.5 12.6199 13.5 10.4986V5.99857C13.5 3.87725 13.5 2.81659 12.841 2.15758C12.414 1.73061 11.8184 1.58027 10.875 1.52734V1.87488C10.875 3.11752 9.86767 4.12488 8.625 4.12488H4.875C3.63236 4.12488 2.625 3.11752 2.625 1.87488V1.52734ZM3 5.81238C2.68934 5.81238 2.4375 6.06423 2.4375 6.37488C2.4375 6.68553 2.68934 6.93738 3 6.93738H3.375C3.68566 6.93738 3.9375 6.68553 3.9375 6.37488C3.9375 6.06423 3.68566 5.81238 3.375 5.81238H3ZM5.625 5.81238C5.31435 5.81238 5.0625 6.06423 5.0625 6.37488C5.0625 6.68553 5.31435 6.93738 5.625 6.93738H10.5C10.8106 6.93738 11.0625 6.68553 11.0625 6.37488C11.0625 6.06423 10.8106 5.81238 10.5 5.81238H5.625ZM3 8.43738C2.68934 8.43738 2.4375 8.68923 2.4375 8.99988C2.4375 9.31053 2.68934 9.56238 3 9.56238H3.375C3.68566 9.56238 3.9375 9.31053 3.9375 8.99988C3.9375 8.68923 3.68566 8.43738 3.375 8.43738H3ZM5.625 8.43738C5.31435 8.43738 5.0625 8.68923 5.0625 8.99988C5.0625 9.31053 5.31435 9.56238 5.625 9.56238H10.5C10.8106 9.56238 11.0625 9.31053 11.0625 8.99988C11.0625 8.68923 10.8106 8.43738 10.5 8.43738H5.625ZM3 11.0624C2.68934 11.0624 2.4375 11.3142 2.4375 11.6249C2.4375 11.9355 2.68934 12.1874 3 12.1874H3.375C3.68566 12.1874 3.9375 11.9355 3.9375 11.6249C3.9375 11.3142 3.68566 11.0624 3.375 11.0624H3ZM5.625 11.0624C5.31435 11.0624 5.0625 11.3142 5.0625 11.6249C5.0625 11.9355 5.31435 12.1874 5.625 12.1874H10.5C10.8106 12.1874 11.0625 11.9355 11.0625 11.6249C11.0625 11.3142 10.8106 11.0624 10.5 11.0624H5.625Z" fill="black" fill-opacity="0.2"/>
</svg>
