<svg width="15" height="15" viewBox="0 0 15 15" fill="none" xmlns="http://www.w3.org/2000/svg">
<path d="M13.575 4.99418C12.2175 4.99418 11.6625 4.03418 12.3375 2.85668C12.7275 2.17418 12.495 1.30418 11.8125 0.914176L10.515 0.171676C9.9225 -0.180824 9.1575 0.029176 8.805 0.621676L8.7225 0.764176C8.0475 1.94168 6.9375 1.94168 6.255 0.764176L6.1725 0.621676C5.835 0.029176 5.07 -0.180824 4.4775 0.171676L3.18 0.914176C2.4975 1.30418 2.265 2.18168 2.655 2.86418C3.3375 4.03418 2.7825 4.99418 1.425 4.99418C0.645 4.99418 0 5.63168 0 6.41918V7.73918C0 8.51918 0.6375 9.16418 1.425 9.16418C2.7825 9.16418 3.3375 10.1242 2.655 11.3017C2.265 11.9842 2.4975 12.8542 3.18 13.2442L4.4775 13.9867C5.07 14.3392 5.835 14.1292 6.1875 13.5367L6.27 13.3942C6.945 12.2167 8.055 12.2167 8.7375 13.3942L8.82 13.5367C9.1725 14.1292 9.9375 14.3392 10.53 13.9867L11.8275 13.2442C12.51 12.8542 12.7425 11.9767 12.3525 11.3017C11.67 10.1242 12.225 9.16418 13.5825 9.16418C14.3625 9.16418 15.0075 8.52668 15.0075 7.73918V6.41918C15 5.63918 14.3625 4.99418 13.575 4.99418ZM7.5 9.51668C6.1575 9.51668 5.0625 8.42168 5.0625 7.07918C5.0625 5.73668 6.1575 4.64168 7.5 4.64168C8.8425 4.64168 9.9375 5.73668 9.9375 7.07918C9.9375 8.42168 8.8425 9.51668 7.5 9.51668Z" fill="#424242"/>
<path d="M13.575 4.99418C12.2175 4.99418 11.6625 4.03418 12.3375 2.85668C12.7275 2.17418 12.495 1.30418 11.8125 0.914176L10.515 0.171676C9.9225 -0.180824 9.1575 0.029176 8.805 0.621676L8.7225 0.764176C8.0475 1.94168 6.9375 1.94168 6.255 0.764176L6.1725 0.621676C5.835 0.029176 5.07 -0.180824 4.4775 0.171676L3.18 0.914176C2.4975 1.30418 2.265 2.18168 2.655 2.86418C3.3375 4.03418 2.7825 4.99418 1.425 4.99418C0.645 4.99418 0 5.63168 0 6.41918V7.73918C0 8.51918 0.6375 9.16418 1.425 9.16418C2.7825 9.16418 3.3375 10.1242 2.655 11.3017C2.265 11.9842 2.4975 12.8542 3.18 13.2442L4.4775 13.9867C5.07 14.3392 5.835 14.1292 6.1875 13.5367L6.27 13.3942C6.945 12.2167 8.055 12.2167 8.7375 13.3942L8.82 13.5367C9.1725 14.1292 9.9375 14.3392 10.53 13.9867L11.8275 13.2442C12.51 12.8542 12.7425 11.9767 12.3525 11.3017C11.67 10.1242 12.225 9.16418 13.5825 9.16418C14.3625 9.16418 15.0075 8.52668 15.0075 7.73918V6.41918C15 5.63918 14.3625 4.99418 13.575 4.99418ZM7.5 9.51668C6.1575 9.51668 5.0625 8.42168 5.0625 7.07918C5.0625 5.73668 6.1575 4.64168 7.5 4.64168C8.8425 4.64168 9.9375 5.73668 9.9375 7.07918C9.9375 8.42168 8.8425 9.51668 7.5 9.51668Z" fill="black" fill-opacity="0.2"/>
</svg>
