<svg width="15" height="15" viewBox="0 0 15 15" fill="none" xmlns="http://www.w3.org/2000/svg">
<path fill-rule="evenodd" clip-rule="evenodd" d="M9 15H6C3.17157 15 1.75736 15 0.878678 14.0911C8.9407e-08 13.1822 0 11.7194 0 8.79375V7.65293C0 5.93662 4.47035e-08 5.07846 0.3894 4.36706C0.7788 3.65566 1.49021 3.21413 2.91302 2.3311L4.41302 1.40015C5.91704 0.466717 6.66908 0 7.5 0C8.33093 0 9.08295 0.466717 10.587 1.40015L12.087 2.33109C13.5098 3.21413 14.2212 3.65566 14.6106 4.36706C15 5.07846 15 5.93662 15 7.65293V8.79375C15 11.7194 15 13.1822 14.1213 14.0911C13.2427 15 11.8284 15 9 15ZM11.5874 7.644C9.32468 5.20178 5.6753 5.20178 3.41263 7.644C3.2015 7.87193 2.8456 7.8855 2.61771 7.67438C2.38982 7.46325 2.37624 7.1073 2.58737 6.87945C5.29527 3.95664 9.7047 3.95664 12.4127 6.87945C12.6238 7.1073 12.6102 7.46325 12.3823 7.67438C12.1544 7.8855 11.7985 7.87193 11.5874 7.644ZM10.0874 9.26288C8.65313 7.7148 6.34688 7.7148 4.91264 9.26288C4.70151 9.4908 4.34561 9.50438 4.11773 9.29325C3.88984 9.08213 3.87626 8.72618 4.08739 8.49833C5.96686 6.46965 9.03315 6.46965 10.9127 8.49833C11.1238 8.72618 11.1102 9.08213 10.8823 9.29325C10.6544 9.50438 10.2986 9.4908 10.0874 9.26288ZM8.58743 10.8821C7.98158 10.2283 7.0185 10.2283 6.41265 10.8821C6.20153 11.1101 5.84563 11.1236 5.61773 10.9125C5.38985 10.7013 5.37626 10.3454 5.5874 10.1176C6.63848 8.98313 8.3616 8.98313 9.41265 10.1176C9.62378 10.3454 9.6102 10.7013 9.38235 10.9125C9.15443 11.1236 8.79855 11.1101 8.58743 10.8821Z" fill="#424242"/>
<path fill-rule="evenodd" clip-rule="evenodd" d="M9 15H6C3.17157 15 1.75736 15 0.878678 14.0911C8.9407e-08 13.1822 0 11.7194 0 8.79375V7.65293C0 5.93662 4.47035e-08 5.07846 0.3894 4.36706C0.7788 3.65566 1.49021 3.21413 2.91302 2.3311L4.41302 1.40015C5.91704 0.466717 6.66908 0 7.5 0C8.33093 0 9.08295 0.466717 10.587 1.40015L12.087 2.33109C13.5098 3.21413 14.2212 3.65566 14.6106 4.36706C15 5.07846 15 5.93662 15 7.65293V8.79375C15 11.7194 15 13.1822 14.1213 14.0911C13.2427 15 11.8284 15 9 15ZM11.5874 7.644C9.32468 5.20178 5.6753 5.20178 3.41263 7.644C3.2015 7.87193 2.8456 7.8855 2.61771 7.67438C2.38982 7.46325 2.37624 7.1073 2.58737 6.87945C5.29527 3.95664 9.7047 3.95664 12.4127 6.87945C12.6238 7.1073 12.6102 7.46325 12.3823 7.67438C12.1544 7.8855 11.7985 7.87193 11.5874 7.644ZM10.0874 9.26288C8.65313 7.7148 6.34688 7.7148 4.91264 9.26288C4.70151 9.4908 4.34561 9.50438 4.11773 9.29325C3.88984 9.08213 3.87626 8.72618 4.08739 8.49833C5.96686 6.46965 9.03315 6.46965 10.9127 8.49833C11.1238 8.72618 11.1102 9.08213 10.8823 9.29325C10.6544 9.50438 10.2986 9.4908 10.0874 9.26288ZM8.58743 10.8821C7.98158 10.2283 7.0185 10.2283 6.41265 10.8821C6.20153 11.1101 5.84563 11.1236 5.61773 10.9125C5.38985 10.7013 5.37626 10.3454 5.5874 10.1176C6.63848 8.98313 8.3616 8.98313 9.41265 10.1176C9.62378 10.3454 9.6102 10.7013 9.38235 10.9125C9.15443 11.1236 8.79855 11.1101 8.58743 10.8821Z" fill="black" fill-opacity="0.2"/>
</svg>
