<svg width="15" height="15" viewBox="0 0 15 15" fill="none" xmlns="http://www.w3.org/2000/svg">
<path d="M14.7497 3.71206C14.2697 2.08456 12.9122 0.727062 11.2847 0.247062C10.0472 -0.112938 9.19219 -0.0829384 8.59969 0.359562C7.88719 0.892062 7.80469 1.85206 7.80469 2.53456V4.40206C7.80469 6.24705 8.64469 7.18455 10.2947 7.18455H12.4472C13.1222 7.18455 14.0897 7.10205 14.6222 6.38955C15.0797 5.80456 15.1172 4.94956 14.7497 3.71206Z" fill="#292D32"/>
<path d="M12.6806 8.52082C12.4856 8.29582 12.2006 8.16832 11.9081 8.16832H9.22309C7.90309 8.16832 6.83059 7.09582 6.83059 5.77585V3.09085C6.83059 2.79835 6.70308 2.51334 6.47808 2.31834C6.26058 2.12334 5.96059 2.03335 5.67559 2.07085C3.91309 2.29585 2.29309 3.26335 1.23559 4.71835C0.170593 6.18082 -0.219407 7.96582 0.118093 9.75082C0.605593 12.3308 2.66809 14.3933 5.25559 14.8808C5.66809 14.9633 6.08059 15.0008 6.49308 15.0008C7.85058 15.0008 9.16308 14.5808 10.2806 13.7633C11.7356 12.7058 12.7031 11.0858 12.9281 9.32332C12.9656 9.03082 12.8756 8.73832 12.6806 8.52082Z" fill="#292D32"/>
</svg>
