<svg width="22" height="22" viewBox="0 0 22 22" fill="none" xmlns="http://www.w3.org/2000/svg">
<g clip-path="url(#clip0_575_1431)">
<path d="M21.9992 16.4393C21.9992 16.5597 21.9955 16.821 21.9882 17.0228C21.9705 17.5166 21.9314 18.1537 21.8722 18.444C21.7832 18.8803 21.6489 19.292 21.4738 19.6348C21.2667 20.0402 21.0024 20.4034 20.6884 20.7168C20.3751 21.0296 20.0122 21.2929 19.6074 21.4992C19.2629 21.6748 18.8485 21.8091 18.4098 21.8977C18.1224 21.9557 17.49 21.9941 16.9994 22.0116C16.7974 22.0188 16.5361 22.0224 16.4161 22.0224L5.5831 22.0207C5.46264 22.0207 5.20143 22.017 4.99963 22.0098C4.50585 21.9921 3.86871 21.9529 3.57839 21.8937C3.14213 21.8047 2.73034 21.6705 2.38762 21.4954C1.98217 21.2882 1.61902 21.0239 1.30558 20.7099C0.992772 20.3966 0.729545 20.0338 0.52323 19.6289C0.347617 19.2844 0.213254 18.87 0.124674 18.4313C0.066666 18.1439 0.0282734 17.5115 0.0108066 17.0209C0.00363086 16.8189 0 16.5576 0 16.4376L0.00171875 5.60461C0.00171875 5.48414 0.00539258 5.22292 0.0126328 5.02111C0.0303574 4.52734 0.0694805 3.8902 0.12867 3.5999C0.217637 3.16364 0.351914 2.75185 0.527033 2.40911C0.734207 2.00368 0.998486 1.6405 1.31248 1.32707C1.62581 1.01428 1.98864 0.751029 2.39347 0.544693C2.73801 0.369123 3.15238 0.23476 3.59111 0.14618C3.87851 0.0881504 4.5109 0.0497578 5.00152 0.0323125C5.20352 0.0251152 5.46483 0.0214844 5.5848 0.0214844L16.4178 0.0232246C16.5383 0.0232246 16.7995 0.0268984 17.0013 0.0341387C17.4951 0.0518633 18.1322 0.0909863 18.4225 0.150176C18.8588 0.239143 19.2706 0.37342 19.6133 0.548539C20.0187 0.755713 20.3819 1.01999 20.6953 1.33399C21.0081 1.64731 21.2714 2.01012 21.4777 2.41497C21.6533 2.75952 21.7876 3.17387 21.8762 3.6126C21.9342 3.90002 21.9726 4.53239 21.9901 5.02303C21.9973 5.22502 22.0009 5.48631 22.0009 5.60633L21.9992 16.4393Z" fill="url(#paint0_linear_575_1431)"/>
<path d="M16.8293 5.22703C15.3398 3.73629 13.359 2.9149 11.2485 2.91406C6.9 2.91406 3.36086 6.45185 3.35912 10.8004C3.35856 12.1904 3.72184 13.5472 4.41222 14.7432L3.29297 18.8302L7.47522 17.7335C8.62756 18.3618 9.92492 18.6929 11.2453 18.6934H11.2486C15.5966 18.6934 19.1361 15.1552 19.1379 10.8066C19.1387 8.69931 18.3189 6.71776 16.8293 5.22703ZM11.2486 17.3614H11.2459C10.0693 17.361 8.91522 17.045 7.90844 16.4477L7.66897 16.3057L5.18716 16.9565L5.84961 14.5375L5.69365 14.2895C5.03726 13.2458 4.69059 12.0395 4.69111 10.8009C4.69253 7.1866 7.63414 4.24609 11.2511 4.24609C13.0026 4.24676 14.649 4.92953 15.887 6.16856C17.125 7.40758 17.8065 9.0546 17.8058 10.8062C17.8044 14.4207 14.8628 17.3614 11.2486 17.3614ZM14.8454 12.4519C14.6482 12.3533 13.6791 11.8765 13.4984 11.8108C13.3177 11.745 13.1863 11.7121 13.0548 11.9094C12.9235 12.1067 12.5457 12.5506 12.4307 12.6821C12.3157 12.8136 12.2007 12.8301 12.0036 12.7314C11.8064 12.6328 11.1713 12.4247 10.4183 11.7533C9.83234 11.2308 9.43668 10.5854 9.3217 10.3881C9.20671 10.1908 9.30947 10.0842 9.40815 9.98595C9.49682 9.89767 9.60527 9.75578 9.70384 9.64071C9.80239 9.52566 9.83526 9.44342 9.90096 9.31192C9.96668 9.18039 9.93381 9.0653 9.88453 8.96666C9.83526 8.86803 9.441 7.89805 9.27673 7.50349C9.11674 7.11922 8.95419 7.17121 8.83319 7.16518C8.71833 7.15946 8.58678 7.15826 8.45538 7.15826C8.32399 7.15826 8.11041 7.20756 7.92973 7.40486C7.74904 7.60215 7.2398 8.07891 7.2398 9.04886C7.2398 10.0188 7.94614 10.9559 8.04471 11.0874C8.14328 11.2189 9.43473 13.2094 11.4122 14.063C11.8825 14.2661 12.2497 14.3873 12.536 14.4782C13.0082 14.6281 13.438 14.607 13.7776 14.5562C14.1564 14.4997 14.9439 14.0795 15.1082 13.6192C15.2725 13.1588 15.2725 12.7643 15.2232 12.6821C15.1739 12.5999 15.0425 12.5506 14.8454 12.4519Z" fill="white"/>
</g>
<defs>
<linearGradient id="paint0_linear_575_1431" x1="11.0005" y1="0.0214844" x2="11.0005" y2="22.0224" gradientUnits="userSpaceOnUse">
<stop stop-color="#61FD7D"/>
<stop offset="1" stop-color="#2BB826"/>
</linearGradient>
<clipPath id="clip0_575_1431">
<rect width="22" height="22" fill="white"/>
</clipPath>
</defs>
</svg>
